#!OML:ASF H:\Male1\Project 1\Capture day 1\Session 1\Male1.ASF
:FULLY-SPECIFIED
:DEGREES
761
root 10.1611 15.6303 -0.764099 267.741 -85.7018 -266.113
lowerback 22.193 -2.70264 5.36301
upperback 10.0065 -3.21959 4.13369
thorax -1.41674 -1.91976 2.13364
lowerneck -5.16741 -5.50685 2.90547
upperneck -12.0087 -7.70703 1.98579
head -2.99092 -4.19903 0.242388
rclavicle -8.74653e-015 -2.22639e-014
rhumerus -31.9358 32.5072 -75.9683
rradius 59.0148
rwrist -33.787
rhand -22.0513 0.945326
rfingers 7.12502
rthumb 4.35922 -28.9898
lclavicle -8.74653e-015 -2.22639e-014
lhumerus -15.2611 -37.8561 77.1887
lradius 59.6566
lwrist 13.15
lhand -21.0299 10.4861
lfingers 7.12502
lthumb 5.34552 40.3987
rfemur -17.3427 -3.82979 17.0194
rtibia 25.0194
rfoot -47.0224 -32.4715
rtoes 27.1951
lfemur -39.3566 15.4777 -24.3691
ltibia 47.8516
lfoot 1.80612 2.5942
ltoes -13.2023
762
root 10.0485 15.6486 -0.776286 265.985 -85.803 -264.342
lowerback 22.1863 -2.62271 5.2529
upperback 9.92486 -3.12215 3.99372
thorax -1.50916 -1.8664 2.02483
lowerneck -5.06469 -5.73032 2.68634
upperneck -11.9875 -7.97345 2.24242
head -2.98186 -4.32834 0.365355
rclavicle 4.29375e-014 -9.54166e-015
rhumerus -32.5016 32.5065 -76.8198
rradius 58.5218
rwrist -33.7799
rhand -22.052 0.897323
rfingers 7.12502
rthumb 4.35857 -29.0378
lclavicle 4.29375e-014 -9.54166e-015
lhumerus -16.677 -36.533 78.4106
lradius 59.2172
lwrist 12.57
lhand -20.5934 10.4049
lfingers 7.12502
lthumb 5.76691 40.3065
rfemur -16.3542 -2.14945 17.0866
rtibia 24.219
rfoot -48.7775 -32.7131
rtoes 28.2329
lfemur -38.2505 13.9128 -23.4811
ltibia 46.798
lfoot 1.38633 1.95207
ltoes -14.5311
763
root 9.93364 15.6636 -0.786916 262.801 -85.9532 -261.161
lowerback 22.1594 -2.51948 5.11813
upperback 9.84646 -3.00258 3.86032
thorax -1.58648 -1.80334 1.93051
lowerneck -4.96692 -5.96234 2.46025
upperneck -11.9495 -8.25049 2.51475
head -2.96393 -4.46286 0.493527
rclavicle -2.94201e-014 2.22639e-014
rhumerus -32.9899 32.5727 -77.6757
rradius 57.9727
rwrist -33.7583
rhand -21.9754 0.705703
rfingers 7.12502
rthumb 4.43255 -29.2279
lclavicle -2.94201e-014 2.22639e-014
lhumerus -18.1469 -35.1574 79.5511
lradius 58.7604
lwrist 11.8557
lhand -20.1118 10.209
lfingers 7.12502
lthumb 6.23192 40.0973
rfemur -15.3557 -0.335366 17.2521
rtibia 23.4236
rfoot -50.6974 -32.9446
rtoes 28.9965
lfemur -37.1334 12.3235 -22.5397
ltibia 45.6293
lfoot 1.0185 1.25528
ltoes -15.4883
764
root 9.81539 15.6755 -0.794542 257.828 -86.1241 -256.186
lowerback 22.0668 -2.39347 4.96989
upperback 9.77083 -2.8618 3.72859
thorax -1.62734 -1.7298 1.83708
lowerneck -4.87666 -6.20215 2.24203
upperneck -11.8915 -8.5385 2.79203
head -2.93669 -4.60296 0.620793
rclavicle 3.97569e-015 4.77083e-014
rhumerus -33.3968 32.6762 -78.5206
rradius 57.3831
rwrist -33.7054
rhand -21.819 0.375474
rfingers 7.12502
rthumb 4.58358 -29.5549
lclavicle 3.97569e-015 4.77083e-014
lhumerus -19.6321 -33.7363 80.6011
lradius 58.244
lwrist 11.0619
lhand -19.6618 9.93649
lfingers 7.12502
lthumb 6.66634 39.8116
rfemur -14.3814 1.58609 17.5013
rtibia 22.6575
rfoot -52.7416 -33.115
rtoes 29.5875
lfemur -36.002 10.7048 -21.5689
ltibia 44.3065
lfoot 0.605891 0.543477
ltoes -16.2403
765
root 9.69347 15.684 -0.798412 250.47 -86.2873 -248.796
lowerback 21.8794 -2.24199 4.82533
upperback 9.69532 -2.69372 3.59973
thorax -1.62061 -1.6419 1.73389
lowerneck -4.8062 -6.44514 2.03786
upperneck -11.7961 -8.83195 3.06942
head -2.89247 -4.74546 0.743299
rclavicle -2.22639e-014 -3.18055e-014
rhumerus -33.7241 32.7892 -79.3443
rradius 56.7659
rwrist -33.6143
rhand -21.6007 -0.033664
rfingers 7.12502
rthumb 4.79438 -29.9594
lclavicle -2.22639e-014 -3.18055e-014
lhumerus -21.0946 -32.2728 81.5483
lradius 57.6321
lwrist 10.238
lhand -19.2649 9.64615
lfingers 7.12502
lthumb 7.04942 39.5088
rfemur -13.4684 3.59891 17.8408
rtibia 21.9408
rfoot -54.8222 -33.2174
rtoes 30.1134
lfemur -34.8597 9.05134 -20.5604
ltibia 42.8097
lfoot 0.0670698 -0.0956948
ltoes -16.9162
766
root 9.56579 15.6895 -0.79726 240.973 -86.3542 -239.232
lowerback 21.5595 -2.07225 4.67223
upperback 9.61805 -2.51073 3.45846
thorax -1.54975 -1.54483 1.6135
lowerneck -4.76197 -6.68494 1.84251
upperneck -11.6409 -9.12159 3.34976
head -2.82223 -4.88478 0.861296
rclavicle -4.77083e-015 -1.90833e-014
rhumerus -33.9893 32.8922 -80.1506
rradius 56.126
rwrist -33.4883
rhand -21.3614 -0.418531
rfingers 7.12502
rthumb 5.02536 -30.3389
lclavicle -4.77083e-015 -1.90833e-014
lhumerus -22.5236 -30.7601 82.389
lradius 56.9043
lwrist 9.41779
lhand -18.9129 9.39307
lfingers 7.12502
lthumb 7.38918 39.244
rfemur -12.6189 5.57156 18.2151
rtibia 21.2851
rfoot -56.6966 -33.2444
rtoes 30.68
lfemur -33.6792 7.32456 -19.5589
ltibia 41.1362
lfoot -0.674052 -0.566514
ltoes -17.5329
767
root 9.43258 15.6917 -0.79089 230.092 -86.2595 -228.26
lowerback 21.1413 -1.88903 4.50486
upperback 9.52199 -2.31436 3.30142
thorax -1.44962 -1.43939 1.47935
lowerneck -4.74965 -6.91444 1.65527
upperneck -11.3938 -9.39843 3.62025
head -2.71511 -5.01484 0.968976
rclavicle 2.70347e-014 -1.59028e-014
rhumerus -34.2297 32.9774 -80.9534
rradius 55.4626
rwrist -33.3175
rhand -21.1472 -0.673572
rfingers 7.12502
rthumb 5.23225 -30.589
lclavicle 2.70347e-014 -1.59028e-014
lhumerus -23.9297 -29.1956 83.126
lradius 56.048
lwrist 8.63355
lhand -18.5883 9.1943
lfingers 7.12502
lthumb 7.70256 39.034
rfemur -11.8262 7.42274 18.6034
rtibia 20.6953
rfoot -58.1979 -33.2139
rtoes 31.365
lfemur -32.4397 5.48257 -18.5667
ltibia 39.313
lfoot -1.64477 -0.78696
ltoes -18.0835
768
root 9.29486 15.6905 -0.780011 218.707 -85.9857 -216.782
lowerback 20.6296 -1.6957 4.35267
upperback 9.43255 -2.10664 3.13749
thorax -1.29438 -1.32694 1.32551
lowerneck -4.7908 -7.12678 1.48097
upperneck -11.0631 -9.6555 3.87779
head -2.57132 -5.13266 1.06352
rclavicle -1.66979e-014 -6.36111e-015
rhumerus -34.3972 33.0273 -81.7306
rradius 54.7732
rwrist -33.0838
rhand -20.9911 -0.77261
rfingers 7.12502
rthumb 5.38299 -30.6842
lclavicle -1.66979e-014 -6.36111e-015
lhumerus -25.25 -27.5709 83.7226
lradius 55.0474
lwrist 7.90272
lhand -18.289 9.03446
lfingers 7.12502
lthumb 7.99144 38.8634
rfemur -11.0749 9.10252 19.042
rtibia 20.1755
rfoot -59.27 -33.1944
rtoes 32.0235
lfemur -31.1276 3.49499 -17.5357
ltibia 37.3893
lfoot -2.79706 -0.700139
ltoes -18.5819
769
root 9.15351 15.6855 -0.765132 207.796 -85.5198 -205.793
lowerback 20.0846 -1.49732 4.22805
upperback 9.32586 -1.88488 2.97782
thorax -1.13914 -1.20643 1.16041
lowerneck -4.86028 -7.32028 1.32382
upperneck -10.6412 -9.89084 4.10347
head -2.39488 -5.23631 1.1391
rclavicle 1.51076e-014 -2.54444e-014
rhumerus -34.5364 33.0452 -82.4973
rradius 54.0761
rwrist -32.7744
rhand -20.8903 -0.770796
rfingers 7.12502
rthumb 5.48022 -30.6799
lclavicle 1.51076e-014 -2.54444e-014
lhumerus -26.5136 -25.8602 84.1951
lradius 53.8973
lwrist 7.20642
lhand -18.0223 8.90252
lfingers 7.12502
lthumb 8.24885 38.7215
rfemur -10.3549 10.5409 19.5533
rtibia 19.7285
rfoot -59.8956 -33.2135
rtoes 32.4664
lfemur -29.7499 1.34679 -16.4462
ltibia 35.4349
lfoot -4.04548 -0.277622
ltoes -18.9276
770
root 9.00958 15.6761 -0.746306 198.187 -84.867 -196.131
lowerback 19.5572 -1.30449 4.13454
upperback 9.18649 -1.65799 2.82619
thorax -1.02579 -1.08263 0.990314
lowerneck -4.93852 -7.49178 1.18513
upperneck -10.1302 -10.1003 4.2888
head -2.19157 -5.32352 1.19408
rclavicle -1.82882e-014 1.82882e-014
rhumerus -34.6821 33.0483 -83.2649
rradius 53.3969
rwrist -32.3978
rhand -20.826 -0.714505
rfingers 7.12502
rthumb 5.54238 -30.622
lclavicle -1.82882e-014 1.82882e-014
lhumerus -27.7305 -24.0509 84.5442
lradius 52.5889
lwrist 6.54613
lhand -17.7837 8.79123
lfingers 7.12502
lthumb 8.47906 38.601
rfemur -9.66363 11.6411 20.1365
rtibia 19.3712
rfoot -60.0741 -33.2636
rtoes 32.503
lfemur -28.3211 -0.947971 -15.3198
ltibia 33.5209
lfoot -5.28841 0.476869
ltoes -19.1078
771
root 8.86367 15.662 -0.723835 190.076 -84.0412 -188.003
lowerback 19.0662 -1.12462 4.06577
upperback 9.01612 -1.43699 2.69064
thorax -0.961596 -0.961884 0.829573
lowerneck -4.9929 -7.63924 1.05293
upperneck -9.56972 -10.2801 4.43953
head -1.9801 -5.39351 1.2357
rclavicle -2.38542e-015 -2.3059e-014
rhumerus -34.8427 33.0624 -84.0282
rradius 52.762
rwrist -31.9792
rhand -20.7872 -0.613322
rfingers 7.12502
rthumb 5.57985 -30.5199
lclavicle -2.38542e-015 -2.3059e-014
lhumerus -28.898 -22.1248 84.7664
lradius 51.1169
lwrist 5.93339
lhand -17.5925 8.69203
lfingers 7.12502
lthumb 8.66362 38.4942
rfemur -9.00935 12.3608 20.7898
rtibia 19.1274
rfoot -59.8023 -33.3514
rtoes 32.0182
lfemur -26.8599 -3.31151 -14.1956
ltibia 31.7205
lfoot -6.40548 1.56289
ltoes -19.3066
